<svg width="28" height="28" viewBox="0 0 28 28" fill="none" xmlns="http://www.w3.org/2000/svg">
<g clip-path="url(#clip0_16_12)">
<path d="M20.2249 28H7.77506C3.48897 28 0 24.5143 0 20.2249V7.77506C0 3.48571 3.48897 0 7.77506 0H20.2282C24.5143 0 28.0033 3.48571 28.0033 7.77506V20.2282C28.0033 24.5143 24.5176 28.0033 20.2282 28.0033L20.2249 28ZM7.77506 2.94015C5.10932 2.94015 2.94015 5.10932 2.94015 7.77506V20.2282C2.94015 22.8939 5.10932 25.0631 7.77506 25.0631H20.2282C22.8939 25.0631 25.0631 22.8939 25.0631 20.2282V7.77506C25.0631 5.10932 22.8939 2.94015 20.2282 2.94015H7.77506Z" fill="#A7A7A7"/>
<path d="M19.6663 21.1364C19.2906 21.1364 18.9149 20.9926 18.6274 20.7051L7.29481 9.37251C6.71985 8.79755 6.71985 7.8665 7.29481 7.29481C7.86977 6.71985 8.80082 6.71985 9.37251 7.29481L20.7051 18.6274C21.2801 19.2024 21.2801 20.1335 20.7051 20.7051C20.4177 20.9926 20.042 21.1364 19.6663 21.1364Z" fill="#A7A7A7"/>
<path d="M8.33366 21.1364C7.95797 21.1364 7.58229 20.9926 7.29481 20.7051C6.71985 20.1302 6.71985 19.1991 7.29481 18.6274L18.6274 7.29481C19.2024 6.71985 20.1335 6.71985 20.7051 7.29481C21.2801 7.86977 21.2801 8.80082 20.7051 9.37251L9.37251 20.7051C9.08503 20.9926 8.70935 21.1364 8.33366 21.1364Z" fill="#A7A7A7"/>
</g>
<defs>
<clipPath id="clip0_16_12">
<rect width="28" height="28" fill="white"/>
</clipPath>
</defs>
</svg>
